<?xml version="1.0" encoding="UTF-8" standalone="no"?>
<!-- Generator: Adobe Illustrator 18.1.1, SVG Export Plug-In . SVG Version: 6.00 Build 0)  -->

<svg
   xmlns:dc="http://purl.org/dc/elements/1.1/"
   xmlns:cc="http://creativecommons.org/ns#"
   xmlns:rdf="http://www.w3.org/1999/02/22-rdf-syntax-ns#"
   xmlns:svg="http://www.w3.org/2000/svg"
   xmlns="http://www.w3.org/2000/svg"
   xmlns:sodipodi="http://sodipodi.sourceforge.net/DTD/sodipodi-0.dtd"
   xmlns:inkscape="http://www.inkscape.org/namespaces/inkscape"
   version="1.1"
   id="Capa_1"
   x="0px"
   y="0px"
   viewBox="0 0 17.347 17.347"
   style="enable-background:new 0 0 17.347 17.347;"
   xml:space="preserve"
   width="512px"
   height="512px"
   inkscape:version="0.91 r13725"
   sodipodi:docname="checkbook.svg"><metadata
     id="metadata51"><rdf:RDF><cc:Work
         rdf:about=""><dc:format>image/svg+xml</dc:format><dc:type
           rdf:resource="http://purl.org/dc/dcmitype/StillImage" /><dc:title></dc:title></cc:Work></rdf:RDF></metadata><defs
     id="defs49" /><sodipodi:namedview
     pagecolor="#ffffff"
     bordercolor="#666666"
     borderopacity="1"
     objecttolerance="10"
     gridtolerance="10"
     guidetolerance="10"
     inkscape:pageopacity="0"
     inkscape:pageshadow="2"
     inkscape:window-width="1920"
     inkscape:window-height="1144"
     id="namedview47"
     showgrid="false"
     inkscape:zoom="0.4609375"
     inkscape:cx="256"
     inkscape:cy="257.08475"
     inkscape:window-x="-2"
     inkscape:window-y="-3"
     inkscape:window-maximized="1"
     inkscape:current-layer="Capa_1" /><g
     id="g3"
     style="fill:#ffffff;fill-opacity:1"><g
       id="g5"
       style="fill:#ffffff;fill-opacity:1"><rect
         x="1.791"
         y="4.807"
         width="6.638"
         height="1.062"
         fill="#000000"
         id="rect7"
         style="fill:#ffffff;fill-opacity:1" /><path
         d="M12.831,11.46c0.117-0.176,0.309-0.354,0.504-0.51H0.956V3.774h14.947v3.881l0.956-0.507v-5.35H0    v10.108h12.534L12.831,11.46z"
         fill="#000000"
         id="path9"
         style="fill:#ffffff;fill-opacity:1" /><rect
         x="1.791"
         y="6.671"
         width="12.066"
         height="1.063"
         fill="#000000"
         id="rect11"
         style="fill:#ffffff;fill-opacity:1" /><path
         d="M17.343,7.704l-2.591,1.372l-0.615,1.928l0.578,0.38l1.353-2.03    c-0.076-0.113-0.082-0.267-0.002-0.388c0.106-0.159,0.322-0.202,0.482-0.097c0.16,0.107,0.203,0.322,0.097,0.482    c-0.077,0.117-0.213,0.168-0.342,0.148l-1.356,2.036l0.595,0.391l1.551-1.277l0.254-2.95L17.343,7.704z"
         fill="#000000"
         id="path13"
         style="fill:#ffffff;fill-opacity:1" /><path
         d="M13.096,12.045c-0.212,0.318-1.514,2.271-1.514,2.271l0.927,0.617l0.276,0.184l0.375,0.251    l0.273,0.182c0,0,1.311-1.967,1.513-2.271c0.203-0.304,0.362-1.138,0.362-1.138l-1.283-0.854    C14.026,11.287,13.307,11.726,13.096,12.045z"
         fill="#000000"
         id="path15"
         style="fill:#ffffff;fill-opacity:1" /></g></g><g
     id="g17" /><g
     id="g19" /><g
     id="g21" /><g
     id="g23" /><g
     id="g25" /><g
     id="g27" /><g
     id="g29" /><g
     id="g31" /><g
     id="g33" /><g
     id="g35" /><g
     id="g37" /><g
     id="g39" /><g
     id="g41" /><g
     id="g43" /><g
     id="g45" /></svg>