<?xml version="1.0" encoding="UTF-8" standalone="no"?>
<svg
   xmlns:dc="http://purl.org/dc/elements/1.1/"
   xmlns:cc="http://creativecommons.org/ns#"
   xmlns:rdf="http://www.w3.org/1999/02/22-rdf-syntax-ns#"
   xmlns:svg="http://www.w3.org/2000/svg"
   xmlns="http://www.w3.org/2000/svg"
   xmlns:sodipodi="http://sodipodi.sourceforge.net/DTD/sodipodi-0.dtd"
   xmlns:inkscape="http://www.inkscape.org/namespaces/inkscape"
   xml:space="preserve"
   width="897.20361"
   height="897.23016"
   shape-rendering="geometricPrecision"
   text-rendering="geometricPrecision"
   image-rendering="optimizeQuality"
   clip-rule="evenodd"
   viewBox="0 0 8972.0361 8972.3016"
   id="svg2"
   version="1.1"
   inkscape:version="0.48.5 r10040"
   sodipodi:docname="logo_symbol.svg"
   style="fill-rule:nonzero"><metadata
     id="metadata14"><rdf:RDF><cc:Work
         rdf:about=""><dc:format>image/svg+xml</dc:format><dc:type
           rdf:resource="http://purl.org/dc/dcmitype/StillImage" /></cc:Work></rdf:RDF></metadata><defs
     id="defs12" /><sodipodi:namedview
     pagecolor="#ffffff"
     bordercolor="#666666"
     borderopacity="1"
     objecttolerance="10"
     gridtolerance="10"
     guidetolerance="10"
     inkscape:pageopacity="0"
     inkscape:pageshadow="2"
     inkscape:window-width="1920"
     inkscape:window-height="1144"
     id="namedview10"
     showgrid="false"
     fit-margin-top="0"
     fit-margin-left="0"
     fit-margin-right="0"
     fit-margin-bottom="0"
     inkscape:zoom="0.65186406"
     inkscape:cx="100.96796"
     inkscape:cy="319.67441"
     inkscape:window-x="-2"
     inkscape:window-y="-3"
     inkscape:window-maximized="1"
     inkscape:current-layer="layer1" /><title
     id="title4">air_tube_carrier icon</title><desc
     id="desc6">air_tube_carrier icon from the IconExperience.com O-Collection. Copyright by INCORS GmbH (www.incors.com).</desc><g
     inkscape:groupmode="layer"
     id="layer1"
     inkscape:label="symbol"
     style="display:inline"
     transform="translate(1.392e-4,2.3583565e-4)"><g
       id="g2991"
       style="fill:#000000;fill-opacity:1;fill-rule:nonzero"
       transform="matrix(0.7071068,0.7071068,-0.7071068,0.7071068,4485.8854,-2754.358)"><path
         d="m 960,3200 0,3840 c -352,0 -640,-288 -640,-640 l 0,-2560 c 0,-353 287,-640 640,-640 z m 2560,640 c -176,0 -320,144 -320,320 0,176 144,320 320,320 l 3200,0 c 176,0 320,-144 320,-320 0,-176 -144,-320 -320,-320 l -3200,0 z m -640,-640 4480,0 0,3840 -4480,0 0,-3840 z m 6400,0 c 353,0 640,288 640,640 l 0,2560 c 0,352 -288,640 -640,640 l 0,-3840 z"
         id="curve1"
         style="fill:#000000;fill-opacity:1"
         inkscape:connector-curvature="0" /><path
         d="m 8000,2880 640,0 c 176,0 320,144 320,320 l 0,3840 c 0,176 -144,320 -320,320 l -640,0 c -176,0 -320,-144 -320,-320 l 0,-3840 c 0,-176 144,-320 320,-320 z m -6400,0 640,0 c 176,0 320,144 320,320 l 0,3840 c 0,176 -144,320 -320,320 l -640,0 c -176,0 -320,-144 -320,-320 l 0,-3840 c 0,-176 144,-320 320,-320 z"
         id="curve0"
         style="fill:#000000;fill-opacity:1"
         inkscape:connector-curvature="0" /></g></g></svg>