<?xml version="1.0" encoding="UTF-8" standalone="no"?>
<!-- Created with Inkscape (http://www.inkscape.org/) -->

<svg
   xmlns:dc="http://purl.org/dc/elements/1.1/"
   xmlns:cc="http://creativecommons.org/ns#"
   xmlns:rdf="http://www.w3.org/1999/02/22-rdf-syntax-ns#"
   xmlns:svg="http://www.w3.org/2000/svg"
   xmlns="http://www.w3.org/2000/svg"
   xmlns:sodipodi="http://sodipodi.sourceforge.net/DTD/sodipodi-0.dtd"
   xmlns:inkscape="http://www.inkscape.org/namespaces/inkscape"
   width="276.49533"
   height="46.180782"
   id="svg2"
   version="1.1"
   inkscape:version="0.91 r13725"
   sodipodi:docname="tellur_combo.svg">
  <defs
     id="defs4" />
  <sodipodi:namedview
     id="base"
     pagecolor="#ffffff"
     bordercolor="#666666"
     borderopacity="1.0"
     inkscape:pageopacity="0"
     inkscape:pageshadow="2"
     inkscape:zoom="5.6"
     inkscape:cx="87.251723"
     inkscape:cy="29.047162"
     inkscape:document-units="px"
     inkscape:current-layer="layer1"
     showgrid="true"
     fit-margin-top="0"
     fit-margin-left="0"
     fit-margin-right="0"
     fit-margin-bottom="0"
     inkscape:window-width="1920"
     inkscape:window-height="1144"
     inkscape:window-x="-2"
     inkscape:window-y="-3"
     inkscape:window-maximized="1"
     inkscape:snap-grids="false"
     inkscape:snap-page="true"
     inkscape:snap-bbox="true">
    <inkscape:grid
       type="xygrid"
       id="grid2985"
       empspacing="5"
       visible="true"
       enabled="true"
       snapvisiblegridlinesonly="true"
       originx="5.9302089px"
       originy="-0.24304624px" />
  </sodipodi:namedview>
  <metadata
     id="metadata7">
    <rdf:RDF>
      <cc:Work
         rdf:about="">
        <dc:format>image/svg+xml</dc:format>
        <dc:type
           rdf:resource="http://purl.org/dc/dcmitype/StillImage" />
        <dc:title></dc:title>
      </cc:Work>
    </rdf:RDF>
  </metadata>
  <g
     inkscape:label="combomark"
     inkscape:groupmode="layer"
     id="layer1"
     transform="translate(5.9302089,-1005.9383)">
    <g
       style="fill-rule:nonzero;fill:#ffffff;fill-opacity:1"
       id="g3063"
       transform="matrix(0.00514703,0,0,0.00514703,-5.9302089,1005.9383)">
      <g
         transform="translate(1.392e-4,2.3583565e-4)"
         style="display:inline;fill:#ffffff;fill-opacity:1"
         inkscape:label="symbol"
         id="layer1-8">
        <g
           transform="matrix(0.7071068,0.7071068,-0.7071068,0.7071068,4485.8854,-2754.358)"
           style="fill:#ffffff;fill-opacity:1;fill-rule:nonzero"
           id="g2991">
          <path
             inkscape:connector-curvature="0"
             style="fill:#ffffff;fill-opacity:1"
             id="curve1"
             d="m 960,3200 0,3840 c -352,0 -640,-288 -640,-640 l 0,-2560 c 0,-353 287,-640 640,-640 z m 2560,640 c -176,0 -320,144 -320,320 0,176 144,320 320,320 l 3200,0 c 176,0 320,-144 320,-320 0,-176 -144,-320 -320,-320 l -3200,0 z m -640,-640 4480,0 0,3840 -4480,0 0,-3840 z m 6400,0 c 353,0 640,288 640,640 l 0,2560 c 0,352 -288,640 -640,640 l 0,-3840 z" />
          <path
             inkscape:connector-curvature="0"
             style="fill:#ffffff;fill-opacity:1"
             id="curve0"
             d="m 8000,2880 640,0 c 176,0 320,144 320,320 l 0,3840 c 0,176 -144,320 -320,320 l -640,0 c -176,0 -320,-144 -320,-320 l 0,-3840 c 0,-176 144,-320 320,-320 z m -6400,0 640,0 c 176,0 320,144 320,320 l 0,3840 c 0,176 -144,320 -320,320 l -640,0 c -176,0 -320,-144 -320,-320 l 0,-3840 c 0,-176 144,-320 320,-320 z" />
        </g>
      </g>
    </g>
    <g
       transform="matrix(1.0130934,0,0,1.0130934,39.34278,1003.4906)"
       inkscape:label="workmark"
       id="layer2"
       style="fill:#ffffff;fill-opacity:1">
      <flowRoot
         inkscape:export-ydpi="300"
         inkscape:export-xdpi="300"
         transform="matrix(2.6666666,0,0,2.6666666,-28.583333,-36.733333)"
         style="font-size:24px;font-style:normal;font-variant:normal;font-stretch:normal;line-height:125%;letter-spacing:0px;word-spacing:0px;fill:#ffffff;fill-opacity:1;stroke:none;font-family:Uni Sans;-inkscape-font-specification:Uni Sans Semi-Light"
         id="flowRoot2985"
         xml:space="preserve"><flowRegion
           id="flowRegion2987"><rect
             y="12.875999"
             x="10.714286"
             height="24.285715"
             width="119.46429"
             id="rect2989"
             style="fill:#ffffff;fill-opacity:1" /></flowRegion><flowPara
           style="font-weight:900;-inkscape-font-specification:Uni Sans Heavy;fill:#ffffff;fill-opacity:1"
           id="flowPara2991">Tellur</flowPara></flowRoot>    </g>
  </g>
</svg>
